<svg width="16" height="16" viewBox="0 0 16 16" fill="none" xmlns="http://www.w3.org/2000/svg">
<path d="M6.66663 3.33333C6.66663 2.97971 6.8071 2.64057 7.05715 2.39052C7.3072 2.14048 7.64634 2 7.99996 2C8.35358 2 8.69272 2.14048 8.94277 2.39052C9.19282 2.64057 9.33329 2.97971 9.33329 3.33333C10.0989 3.69535 10.7516 4.25888 11.2213 4.96353C11.6911 5.66818 11.9603 6.48738 12 7.33333V9.33333C12.0501 9.7478 12.1969 10.1447 12.4285 10.4921C12.6601 10.8395 12.97 11.1276 13.3333 11.3333H2.66663C3.02992 11.1276 3.33983 10.8395 3.57142 10.4921C3.803 10.1447 3.94979 9.7478 3.99996 9.33333V7.33333C4.03967 6.48738 4.30883 5.66818 4.77859 4.96353C5.24836 4.25888 5.90102 3.69535 6.66663 3.33333" stroke="black" stroke-width="1.5" stroke-linecap="round" stroke-linejoin="round"/>
<path d="M6 11.3333V12C6 12.5304 6.21071 13.0392 6.58579 13.4142C6.96086 13.7893 7.46957 14 8 14C8.53043 14 9.03914 13.7893 9.41421 13.4142C9.78929 13.0392 10 12.5304 10 12V11.3333" stroke="black" stroke-width="1.5" stroke-linecap="round" stroke-linejoin="round"/>
<path d="M14 4.48467C13.5627 3.5335 12.9277 2.68646 12.1373 2" stroke="black" stroke-width="1.5" stroke-linecap="round" stroke-linejoin="round"/>
<path d="M2 4.48467C2.4369 3.53363 3.07143 2.6866 3.86133 2" stroke="black" stroke-width="1.5" stroke-linecap="round" stroke-linejoin="round"/>
</svg>
