<svg width="120" height="47" viewBox="0 0 120 47" fill="none" xmlns="http://www.w3.org/2000/svg">
<path d="M119.859 13.8524C118.766 13.5515 117.898 13.0478 117.302 12.3184C117.309 10.1693 117.312 9.10629 117.315 7.04559C117.322 4.89986 116.542 3.29055 115.009 2.10974C113.469 0.928932 111.37 0.317267 108.712 0.271473C106.067 0.228951 103.968 0.791553 102.415 2.02143C100.869 3.24803 100.076 4.97836 100.059 7.19933C100.043 9.33525 100.033 10.4179 100.016 12.5931C99.421 13.352 98.5623 13.8917 97.4897 14.2417C97.4009 14.2711 97.3515 14.3332 97.3515 14.4281C97.3515 14.4935 97.3976 14.5393 97.4864 14.5622C98.5787 14.8272 99.421 15.3178 99.9868 16.0407C99.9704 18.0065 99.9638 18.9943 99.9474 20.9634C99.9309 23.2433 100.684 25.0096 102.214 26.2526C103.737 27.4922 105.833 28.0516 108.498 28.0156C111.179 27.9796 113.328 27.3614 114.9 26.0727C116.48 24.7806 117.276 22.9718 117.282 20.6789C117.289 18.6967 117.289 17.7056 117.296 15.743C117.881 15.0005 118.743 14.4804 119.862 14.1697C119.954 14.1435 120 14.0977 120 14.0291C119.997 13.9375 119.951 13.8753 119.859 13.8524ZM110.768 20.548C110.762 21.5293 110.574 22.2031 110.206 22.5629C109.883 22.8573 109.324 23.0078 108.534 23.0209C107.745 23.034 107.199 22.8966 106.896 22.6153C106.524 22.2653 106.337 21.6013 106.343 20.62C106.379 16.1584 106.416 11.6969 106.452 7.23531C106.458 6.29 106.656 5.65217 107.034 5.31199C107.34 5.03723 107.886 4.89658 108.672 4.89331C109.459 4.89331 110.012 5.02742 110.327 5.29891C110.689 5.63255 110.867 6.26057 110.86 7.19606C110.827 11.6478 110.798 16.0963 110.768 20.548Z" fill="black"/>
<path d="M47.067 18.9845C45.9911 18.7588 45.1291 18.2453 44.5369 17.4014C44.5369 14.7061 44.5369 13.3552 44.5369 10.66C44.5369 7.85351 43.7539 5.71104 42.2109 4.19005C40.6613 2.66253 38.5458 1.956 35.871 2.1588C33.2094 2.3616 31.1071 3.39849 29.5542 5.27274C28.0112 7.14044 27.2282 9.59692 27.2282 12.5931C27.2282 15.4944 27.2282 16.9435 27.2282 19.8448C26.636 20.8849 25.7871 21.6765 24.7376 22.2391C24.6455 22.2882 24.5994 22.3765 24.5994 22.5008C24.5994 22.5891 24.6455 22.6447 24.7376 22.6643C25.8135 22.89 26.6524 23.4265 27.2282 24.2802C27.2282 26.8904 27.2282 28.1922 27.2282 30.8024C27.2282 33.7986 28.0046 36.0261 29.5542 37.4195C31.0972 38.8064 33.2094 39.1858 35.871 38.6167C38.5458 38.0443 40.6679 36.7719 42.2109 34.8322C43.7638 32.8795 44.5369 30.5179 44.5369 27.7114C44.5369 25.2876 44.5369 24.0774 44.5369 21.6536C45.116 20.6527 45.9681 19.8938 47.067 19.3705C47.1591 19.328 47.2051 19.2625 47.2051 19.1808C47.2051 19.0728 47.1591 19.0041 47.067 18.9845ZM38.0819 28.6665C38.0819 29.9127 37.901 30.7926 37.5358 31.316C37.2167 31.7477 36.6606 32.0356 35.871 32.186C35.0814 32.3365 34.532 32.2515 34.2293 31.9374C33.8543 31.5482 33.6601 30.7207 33.6601 29.4548C33.6601 23.6293 33.6601 17.807 33.6601 11.9814C33.6601 10.7156 33.8543 9.82915 34.2293 9.3287C34.5353 8.9231 35.0814 8.67778 35.871 8.59928C36.6606 8.52078 37.2167 8.65162 37.5358 8.99179C37.901 9.41047 38.0819 10.2413 38.0819 11.4843C38.0819 17.2117 38.0819 22.9391 38.0819 28.6665Z" fill="black"/>
<path d="M93.9859 22.033C93.67 21.9872 93.4364 22.1083 93.3048 22.3863C93.2259 22.5498 93.0548 22.7526 92.7817 22.9718C92.2586 23.3938 91.571 23.6685 90.7419 23.8092C88.3862 24.012 87.2084 24.1297 84.8396 24.3848C84.8462 21.7812 84.8495 20.4761 84.8561 17.8659C86.9683 17.686 88.0178 17.6042 90.1168 17.457C91.2979 17.5388 92.0645 17.8986 92.4231 18.5233C92.5284 18.7327 92.7093 18.8308 92.966 18.8144C93.012 18.8112 93.0581 18.8013 93.1008 18.785C93.42 18.7098 93.5779 18.5233 93.5812 18.2257C93.5976 15.3211 93.6075 13.8688 93.6272 10.9838C93.6305 10.6894 93.4726 10.5128 93.1535 10.4605C92.8344 10.4212 92.6008 10.539 92.4692 10.8104C92.3902 10.9707 92.206 11.1637 91.9197 11.3796C91.3736 11.7917 90.6662 12.0567 89.801 12.1548C87.8335 12.2595 86.8465 12.3183 84.8692 12.4492C84.8758 9.61327 84.8791 8.19369 84.8857 5.37087C86.9189 5.2989 87.9289 5.26947 89.949 5.21713C91.4262 5.23349 92.3803 5.62273 92.8146 6.37177C92.9199 6.58111 93.1008 6.68578 93.3575 6.67924C93.3871 6.67924 93.4266 6.6727 93.4726 6.65634C93.8049 6.5942 93.9727 6.41757 93.976 6.12645C93.9826 3.87604 93.9826 2.76065 93.9891 0.556039C93.9924 0.206048 93.795 0.0294176 93.4002 0.0261467C87.9585 -0.0327303 82.5136 0.0130624 77.0719 0.111191C76.7824 0.117732 76.5948 0.248571 76.5027 0.510246C76.4106 0.771921 76.4797 0.987803 76.7067 1.15135C76.96 1.33125 77.2298 1.64853 77.5029 2.09665C77.9898 2.96999 78.2333 4.04286 78.2333 5.32507C78.2333 8.73339 78.2333 10.4408 78.2333 13.8491C77.6411 14.6963 76.7791 15.3211 75.7032 15.7463C75.6144 15.7823 75.565 15.8542 75.565 15.9524C75.565 16.0243 75.6111 16.0701 75.7032 16.0897C76.8021 16.322 77.6542 16.8028 78.2333 17.542C78.2333 20.8784 78.2333 22.5433 78.2333 25.8797C78.2333 26.8904 77.9799 27.8946 77.4568 28.8399C77.164 29.3698 76.8876 29.759 76.6573 29.9945C76.4435 30.2006 76.3908 30.4165 76.4961 30.6454C76.6014 30.8711 76.7922 30.9627 77.0653 30.9202C82.632 30.0403 88.2119 29.2749 93.8279 28.7843C94.2195 28.7483 94.4168 28.552 94.4168 28.1922C94.43 25.932 94.4399 24.7937 94.453 22.5139C94.4596 22.2293 94.3017 22.0657 93.9859 22.033Z" fill="black"/>
<path d="M72.9298 16.0211C71.8539 15.7954 70.9919 15.3178 70.3997 14.5459C70.3997 12.7796 70.3997 11.8964 70.3997 10.1301C70.5708 4.71341 67.1295 0.019614 61.2798 0.690157C58.0161 0.814453 54.7557 0.961645 51.492 1.13173C51.2025 1.14809 51.0117 1.30182 50.9228 1.59621C50.8307 1.89059 50.8998 2.12937 51.1268 2.30273C51.3802 2.49572 51.6499 2.83917 51.9263 3.32981C52.4132 4.28492 52.6567 5.47554 52.6567 6.90494C52.6567 10.0745 52.6567 13.244 52.6567 16.4136C52.0645 17.372 51.1992 18.0916 50.1234 18.592C50.0313 18.6345 49.9852 18.713 49.9852 18.8275C49.9852 18.9093 50.0313 18.9584 50.1234 18.978C51.2222 19.2102 52.0776 19.727 52.6534 20.5382C52.6534 23.6391 52.6534 26.7399 52.6534 29.8375C52.6534 30.966 52.4001 32.0879 51.8769 33.151C51.5841 33.7463 51.3078 34.1813 51.0775 34.4495C50.8636 34.6818 50.811 34.9238 50.9163 35.1757C51.0215 35.4276 51.2124 35.5257 51.4854 35.4733C54.7426 34.8388 58.003 34.2238 61.2699 33.6318C67.1426 32.8958 70.5215 27.8521 70.3932 22.2195C70.3932 20.6821 70.3932 19.9135 70.3932 18.3761C70.9722 17.4864 71.8243 16.8224 72.9232 16.371C73.0153 16.3351 73.0614 16.2762 73.0614 16.2042C73.0679 16.1028 73.0219 16.0374 72.9298 16.0211ZM63.8098 23.747C63.8098 25.2189 63.5762 26.2493 63.1255 26.8348C62.6682 27.4301 61.8029 27.839 60.5264 28.0418C60.023 28.1203 59.773 28.1595 59.2729 28.2413C59.2729 20.9994 59.2762 13.7576 59.2762 6.51243C59.7796 6.47645 60.0296 6.4601 60.5297 6.42412C61.8062 6.3358 62.6748 6.54841 63.1288 7.04887C63.5861 7.54932 63.8131 8.53714 63.8131 10.0091C63.8098 14.5884 63.8098 19.1677 63.8098 23.747Z" fill="black"/>
<path d="M10.4129 44.6156C10.686 44.5469 10.8768 44.3376 10.9821 43.9974C11.0874 43.654 11.0347 43.3988 10.8209 43.2287C10.5938 43.0259 10.3142 42.6432 10.0214 42.0904C9.50156 41.0993 9.25152 39.9055 9.24823 38.5938C9.25152 35.3523 9.2581 32.1108 9.26139 28.8693C9.36667 28.8464 9.4226 28.8366 9.52788 28.8137C10.8702 31.6823 12.229 34.5444 13.6042 37.3999C13.6042 37.4032 13.6075 37.4065 13.6075 37.4065C14.0878 38.6363 14.328 39.8335 14.2885 40.9652C14.2655 41.6456 14.1569 42.1984 13.9924 42.6073C13.8839 42.8722 13.8872 43.1208 13.9924 43.3498C14.1142 43.5591 14.2885 43.6343 14.5155 43.5787C17.947 42.725 19.6611 42.3129 23.0926 41.5082C23.494 41.4134 23.8559 40.9293 23.7868 40.4844C23.7539 40.2653 23.6355 40.1279 23.4315 40.0723C22.8656 39.7223 22.2898 39.1302 21.6976 38.2863C21.6121 38.1653 21.5364 38.0345 21.4706 37.8971C19.6973 34.2238 17.947 30.5408 16.2264 26.8446C16.2033 26.7955 16.2264 26.7268 16.2757 26.7007C17.5555 25.9647 18.582 24.9638 19.3552 23.7045C20.2336 22.2718 20.6777 20.6331 20.6777 18.7686C20.6777 18.4023 20.6777 18.2191 20.6777 17.8528C20.6942 14.2646 20.6942 12.3183 20.6777 12.0141C20.6152 9.06375 20.1349 7.01614 19.263 5.87131C18.2135 4.48771 16.3448 3.89894 13.6536 4.19986C10.1925 4.58583 6.73137 5.00451 3.27685 5.46245C3.21434 5.47226 3.15841 5.49843 3.10248 5.52786C2.48725 5.60964 2.17799 5.64889 1.55947 5.73393C1.26666 5.77318 0.987005 6.03813 0.911334 6.40775C0.845534 6.73157 0.917914 6.99325 1.13177 7.17315C1.3851 7.38576 1.65488 7.78154 1.93124 8.35396C2.41816 9.47262 2.66162 10.8857 2.66162 12.6029C2.66162 16.4005 2.66162 20.198 2.66162 23.9923C2.66162 24.0152 2.65504 24.0381 2.64517 24.0577C2.05297 25.2287 1.19099 26.1283 0.128311 26.7792C0.0460602 26.8348 0 26.9329 0 27.067C0 27.1651 0.0460602 27.224 0.138181 27.2404C1.22718 27.4595 2.076 28.0254 2.65504 28.9576C2.66491 28.974 2.67149 28.9936 2.67149 29.0165C2.67149 32.729 2.67149 36.4415 2.67149 40.1573C2.67149 41.5148 2.42145 42.8689 1.89505 44.1708C1.60224 44.8969 1.32588 45.4333 1.09557 45.7637C0.881724 46.0516 0.829084 46.3459 0.934364 46.6436C1.03964 46.9413 1.23047 47.0525 1.50354 46.9772C4.46784 46.1628 7.43543 45.3745 10.4129 44.6156ZM9.26468 21.4802C9.26468 18.3696 9.26468 15.2556 9.26468 12.145C9.26468 12.0894 9.30087 12.0403 9.34693 12.0338C10.6531 11.8441 11.3045 11.7525 12.6106 11.5693C13.2028 11.4875 13.6174 11.5791 13.8411 11.8408C14.0253 12.0534 14.1142 12.4623 14.1142 13.0707C14.1142 15.4552 14.1142 16.6491 14.1142 19.0336C14.1142 19.6387 13.999 20.0999 13.772 20.4139C13.545 20.7083 13.1568 20.9046 12.6106 20.9994C11.3045 21.2251 10.6531 21.3396 9.34693 21.5718C9.30087 21.5751 9.26468 21.5359 9.26468 21.4802Z" fill="black"/>
</svg>
